<svg id="Capa_1" enable-background="new 0 0 512 512" height="512" viewBox="0 0 512 512" width="512" xmlns="http://www.w3.org/2000/svg"><g><path d="m128.879 151.876c-3.881 2.732-8.403 5.998-12.51 9.513l9.737 11.44c3.633-3.109 7.797-6.114 11.391-8.644z"/><path d="m156.863 136.965c-4.504 1.796-9.183 3.978-14.304 6.674l6.972 13.316c4.652-2.448 8.863-4.416 12.875-6.016z"/><path d="m349.829 371.011 12.381 8.491c2.906-4.26 5.66-8.694 8.186-13.183l-13.063-7.39c-2.316 4.113-4.841 8.179-7.504 12.082z"/><path d="m213.408 443.241c-35.334.102-69.248-11.342-97.75-31.972l-67.399 65.289v-70.316h-15v105.758l84.128-81.495c28.734 18.191 61.798 27.774 96.021 27.774 54.191 0 104.996-24.124 139.388-66.186l-11.601-9.534c-31.531 38.564-78.108 60.682-127.787 60.682z"/><path d="m108.401 309.354h59.904v-60.204h-59.904zm15-45.165h29.904v30.126h-29.904z"/><path d="m318.305 279.324v-.145c0-16.559-13.437-30.029-29.952-30.029s-29.952 13.47-29.952 30.029v.145c0 16.559 13.437 30.03 29.952 30.03s29.952-13.471 29.952-30.03zm-44.904 0v-.145c0-8.266 6.708-14.99 14.952-14.99s14.952 6.724 14.952 14.99v.145c0 8.267-6.708 14.991-14.952 14.991s-14.952-6.724-14.952-14.991z"/><path d="m213.353 164.594-34.57 69.542h69.141zm0 33.714 10.334 20.788h-20.668z"/><path d="m232.154 324.94-18.801 18.849-18.8-18.849-10.607 10.635 18.8 18.848-18.8 18.849 10.607 10.635 18.8-18.849 18.801 18.849 10.606-10.635-18.8-18.849 18.8-18.848z"/><path d="m365.946 151.629 21.372 32.09 91.425-42.532-15.639-76.138-.07-.307c-7.251-29.079-29.773-51.66-58.778-58.931l-23.18-5.811-15.618 31.317h-35.21l-15.617-31.317-23.18 5.81c-29.004 7.271-51.527 29.852-58.777 58.931l-6.73 32.752c-103.429-7.652-193.108 76.167-192.685 180.169v113.542h15v-113.542c-.32-94.635 80.44-171.029 174.63-165.304l-5.924 28.829 91.43 42.535 17.326-26.07c33.6 31.325 52.727 75.094 52.727 121.313 0 23.716-4.891 46.61-14.536 68.048l13.673 6.184c10.526-23.395 15.863-48.37 15.863-74.232 0-48.007-18.915-93.59-52.363-127.336zm-62.903 13.024-68.992-32.096 13.21-64.316c7.683-29.552 30.331-45.522 59.333-50.724l7.355 14.749c-13.836 2.088-25.838 7.541-35.122 16.062l10.129 11.093c8.934-8.201 21.472-12.718 36.26-13.065h47.193c14.788.348 27.326 4.864 36.26 13.065l10.131-11.093c-9.684-8.888-22.324-14.439-36.919-16.313l7.23-14.499c29.062 5.238 51.61 21.131 59.333 50.724l13.211 64.316-68.998 32.099-9.275-13.927c13.96-2.053 26.064-7.524 35.414-16.105l-10.126-11.093c-8.934 8.197-21.471 12.712-36.259 13.059h-47.195c-14.787-.348-27.325-4.862-36.259-13.06l-10.127 11.095c8.955 8.216 20.437 13.577 33.654 15.821z"/><path d="m310.094 114.031c12.407 0 22.5-10.12 22.5-22.559s-10.093-22.559-22.5-22.559-22.5 10.12-22.5 22.559 10.093 22.559 22.5 22.559zm0-30.078c4.136 0 7.5 3.373 7.5 7.52s-3.364 7.52-7.5 7.52-7.5-3.373-7.5-7.52 3.364-7.52 7.5-7.52z"/><path d="m385.094 114.031c12.407 0 22.5-10.12 22.5-22.559s-10.093-22.559-22.5-22.559-22.5 10.12-22.5 22.559 10.093 22.559 22.5 22.559zm0-30.078c4.136 0 7.5 3.373 7.5 7.52s-3.364 7.52-7.5 7.52-7.5-3.373-7.5-7.52 3.364-7.52 7.5-7.52z"/></g></svg>